<svg xmlns="http://www.w3.org/2000/svg" width="920" height="520" viewBox="0 0 920 520">
  <defs><pattern id="grid" width="40" height="40" patternUnits="userSpaceOnUse"><path d="M40 0H0V40" fill="none" stroke="#1e293b" stroke-width=".5"/></pattern><marker id="arrow" markerWidth="10" markerHeight="7" refX="9" refY="3.5" orient="auto"><polygon points="0 0,10 3.5,0 7" fill="#64748b"/></marker><marker id="fast" markerWidth="10" markerHeight="7" refX="9" refY="3.5" orient="auto"><polygon points="0 0,10 3.5,0 7" fill="#34d399"/></marker></defs>
  <rect width="920" height="520" fill="#020617"/><rect width="920" height="520" fill="url(#grid)"/>
  <text x="40" y="38" fill="#fff" font-family="monospace" font-size="17" font-weight="700">Materialized View Query Rewrite</text>
  <text x="40" y="60" fill="#94a3b8" font-family="monospace" font-size="9">The optimizer selects an equivalent but cheaper physical path</text>
  <g fill="none" stroke="#64748b" stroke-width="1.5" marker-end="url(#arrow)"><path d="M190 166H326"/><path d="M452 166H578"/><path d="M390 198V274H250V318"/><path d="M390 198V274H690V318"/></g>
  <path d="M690 386V428H510" fill="none" stroke="#34d399" stroke-width="2" marker-end="url(#fast)"/>
  <g font-family="monospace" text-anchor="middle">
    <g><rect x="62" y="126" width="128" height="72" rx="6" fill="#0f172a" stroke="#22d3ee"/><text x="126" y="154" fill="#fff" font-size="11" font-weight="700">业务 SQL</text><text x="126" y="176" fill="#94a3b8" font-size="8">query base table</text></g>
    <g><rect x="326" y="126" width="126" height="72" rx="6" fill="#0f172a" stroke="#fb923c"/><text x="389" y="154" fill="#fff" font-size="11" font-weight="700">Optimizer</text><text x="389" y="176" fill="#94a3b8" font-size="8">semantic match</text></g>
    <g><rect x="578" y="126" width="150" height="72" rx="6" fill="#0f172a" stroke="#a78bfa"/><text x="653" y="154" fill="#fff" font-size="11" font-weight="700">Candidate Search</text><text x="653" y="176" fill="#94a3b8" font-size="8">base table + MVs</text></g>
    <g><rect x="160" y="318" width="180" height="68" rx="6" fill="#0f172a" stroke="#fb7185"/><text x="250" y="345" fill="#fff" font-size="11" font-weight="700">Base Table Plan</text><text x="250" y="366" fill="#94a3b8" font-size="8">scan billions of rows</text></g>
    <g><rect x="600" y="318" width="180" height="68" rx="6" fill="#0f172a" stroke="#34d399"/><text x="690" y="345" fill="#fff" font-size="11" font-weight="700">MV Plan</text><text x="690" y="366" fill="#94a3b8" font-size="8">scan + small roll up</text></g>
    <g><rect x="330" y="426" width="180" height="58" rx="6" fill="#0f172a" stroke="#34d399"/><text x="420" y="450" fill="#fff" font-size="11" font-weight="700">Lower Cost Plan</text><text x="420" y="470" fill="#94a3b8" font-size="8">transparent rewrite</text></g>
    <text x="506" y="286" fill="#94a3b8" font-size="8">compare scan rows · freshness · roll up · join cost</text>
  </g>
</svg>
