<svg xmlns="http://www.w3.org/2000/svg" width="920" height="500" viewBox="0 0 920 500">
  <defs><pattern id="grid" width="40" height="40" patternUnits="userSpaceOnUse"><path d="M40 0H0V40" fill="none" stroke="#1e293b" stroke-width=".5"/></pattern></defs>
  <rect width="920" height="500" fill="#020617"/><rect width="920" height="500" fill="url(#grid)"/>
  <text x="40" y="38" fill="#fff" font-family="monospace" font-size="17" font-weight="700">Star Schema vs Snowflake Schema</text>
  <text x="40" y="60" fill="#94a3b8" font-family="monospace" font-size="9">Dimension modeling trades query simplicity for normalization</text>
  <line x1="460" y1="90" x2="460" y2="450" stroke="#334155"/>
  <g fill="none" stroke="#64748b" stroke-width="1.4">
    <path d="M232 246V172"/><path d="M232 246H114"/><path d="M232 246H350"/><path d="M232 246V320"/>
    <path d="M690 246V172"/><path d="M690 246H572"/><path d="M690 246H808"/><path d="M690 246V320"/>
    <path d="M808 246V158H858"/><path d="M808 246V334H858"/>
  </g>
  <g font-family="monospace" text-anchor="middle">
    <text x="232" y="108" fill="#22d3ee" font-size="12" font-weight="700">STAR SCHEMA</text>
    <text x="690" y="108" fill="#a78bfa" font-size="12" font-weight="700">SNOWFLAKE SCHEMA</text>
    <g><rect x="172" y="218" width="120" height="56" rx="6" fill="#0f172a" stroke="#fb923c"/><text x="232" y="242" fill="#fff" font-size="11" font-weight="700">fact_orders</text><text x="232" y="259" fill="#94a3b8" font-size="8">amount · quantity</text></g>
    <g fill="#0f172a" stroke="#34d399"><rect x="172" y="126" width="120" height="46" rx="6"/><rect x="54" y="222" width="120" height="46" rx="6"/><rect x="290" y="222" width="120" height="46" rx="6"/><rect x="172" y="320" width="120" height="46" rx="6"/></g>
    <g fill="#fff" font-size="10"><text x="232" y="154">dim_date</text><text x="114" y="250">dim_user</text><text x="350" y="250">dim_product</text><text x="232" y="348">dim_region</text></g>
    <g><rect x="630" y="218" width="120" height="56" rx="6" fill="#0f172a" stroke="#fb923c"/><text x="690" y="242" fill="#fff" font-size="11" font-weight="700">fact_orders</text><text x="690" y="259" fill="#94a3b8" font-size="8">amount · quantity</text></g>
    <g fill="#0f172a" stroke="#a78bfa"><rect x="630" y="126" width="120" height="46" rx="6"/><rect x="512" y="222" width="120" height="46" rx="6"/><rect x="750" y="222" width="116" height="46" rx="6"/><rect x="630" y="320" width="120" height="46" rx="6"/><rect x="838" y="136" width="72" height="44" rx="6"/><rect x="838" y="312" width="72" height="44" rx="6"/></g>
    <g fill="#fff" font-size="10"><text x="690" y="154">dim_date</text><text x="572" y="250">dim_user</text><text x="808" y="250">dim_product</text><text x="690" y="348">dim_region</text><text x="874" y="162">category</text><text x="874" y="338">brand</text></g>
    <text x="232" y="412" fill="#94a3b8" font-size="9">更少 Join · 更容易查询 · 维度可能冗余</text>
    <text x="690" y="412" fill="#94a3b8" font-size="9">减少冗余 · 更多 Join · 模型更规范化</text>
  </g>
</svg>
