<svg version="1.1" xmlns="http://www.w3.org/2000/svg" xmlns:xlink="http://www.w3.org/1999/xlink" width="512.000000pt" height="512.000000pt" viewBox="0 0 512.000000 512.000000">
<g transform="translate(0.000000,512.000000) scale(0.100000,-0.100000)"
fill="#515151" stroke="none">
<path d="M2395 5030 c-454 -51 -883 -231 -1217 -509 -258 -216 -413 -468 -323
-527 37 -24 100 -28 185 -10 54 12 141 48 320 135 410 199 589 254 945 292
135 14 384 6 515 -16 119 -21 271 -71 347 -116 86 -50 202 -171 240 -249 58
-121 68 -175 67 -375 -1 -161 -3 -190 -27 -277 -28 -106 -88 -230 -140 -292
l-33 -38 -59 13 c-97 22 -397 17 -512 -9 -194 -44 -281 -120 -291 -252 -6 -85
11 -142 55 -191 73 -80 195 -122 411 -141 129 -11 202 -8 353 18 34 6 37 4 87
-59 113 -141 171 -276 208 -482 14 -77 18 -152 18 -330 l1 -230 -32 -95 c-43
-126 -93 -210 -178 -295 -117 -119 -285 -209 -484 -263 -87 -23 -115 -25 -291
-26 -161 0 -217 3 -320 22 -121 22 -307 66 -316 75 -7 7 64 1056 77 1122 6 33
41 200 79 370 127 576 209 1020 230 1245 14 158 12 382 -3 457 -19 89 -38 106
-108 101 -38 -3 -80 -15 -125 -38 -328 -161 -678 -948 -899 -2020 -59 -288
-105 -680 -105 -896 0 -41 -3 -74 -8 -74 -4 0 -68 13 -142 29 -282 62 -361 61
-401 -2 -16 -25 -19 -45 -17 -97 5 -96 35 -149 147 -260 189 -188 443 -322
876 -465 466 -153 886 -215 1315 -194 780 38 1345 314 1632 796 113 190 148
332 148 605 0 376 -54 586 -208 803 -107 151 -291 319 -461 422 -44 26 -80 50
-80 53 0 3 39 29 87 58 269 164 455 416 512 692 55 267 22 554 -88 783 -60
125 -114 197 -229 307 -230 221 -558 357 -1003 416 -145 19 -629 28 -755 14z"/>
</g>
</svg>